PathFileType	4	(X/Y/Z)	Patient4_TMGait_0pt6_02_left_32.trc.trc
DataRate	CameraRate	NumFrames	NumMarkers	Units	OrigDataRate	OrigDataStartFrame	OrigNumFrames
83.832335329341	83.832335329341	5	33	mm	83.832335329341	71	       141
Frame#	Time	Sacral			L.Shoulder			Chest			R.Shoulder			Neck			R.ASIS			L.ASIS			R.Thigh.Superior			R.Thigh.Lateral			R.Thigh.Inferior			R.Patella			L.Thigh.Superior			L.Thigh.Lateral			L.Thigh.Inferior			L.Patella			L.Shank.Superior			L.Shank.Lateral			L.Shank.Inferior			R.Shank.Superior			R.Shank.Lateral			R.Shank.Inferior			R.Heel			R.Midfoot.Superior			R.Midfoot.Lateral			R.Toe			L.Heel			L.Midfoot.Lateral			L.Midfoot.Superior			L.Toe			L.Elbow			L.Wrist			R.Elbow			R.Wrist			
		X1	Y1	Z1	X2	Y2	Z2	X3	Y3	Z3	X4	Y4	Z4	X5	Y5	Z5	X6	Y6	Z6	X7	Y7	Z7	X8	Y8	Z8	X9	Y9	Z9	X10	Y10	Z10	X11	Y11	Z11	X12	Y12	Z12	X13	Y13	Z13	X14	Y14	Z14	X15	Y15	Z15	X16	Y16	Z16	X17	Y17	Z17	X18	Y18	Z18	X19	Y19	Z19	X20	Y20	Z20	X21	Y21	Z21	X22	Y22	Z22	X23	Y23	Z23	X24	Y24	Z24	X25	Y25	Z25	X26	Y26	Z26	X27	Y27	Z27	X28	Y28	Z28	X29	Y29	Z29	X30	Y30	Z30	X31	Y31	Z31	X32	Y32	Z32	X33	Y33	Z33	

71	39.935000000000	783.552895915645	1007.864903662089	442.534544335457	994.931531981652	1428.944224518038	268.918429029054	1091.330070745699	1345.969331260614	426.525641878037	1015.030612890636	1426.436086751537	600.453299035089	999.547972995201	1484.984865146091	420.094489371833	1009.458866788039	934.472806099372	558.220584257430	983.472805941033	955.026127709555	285.014846586081	1085.526460425994	769.754003562780	527.387264133385	1046.146885178402	647.610299240420	604.811621741603	1134.155954179178	613.031127373184	522.872928694056	1170.703015998250	527.948338456013	539.975726743660	1000.976530735955	730.584221819823	312.140639000203	884.992760570745	635.637200386341	251.914202811500	945.942006236615	542.283841678266	315.390626918057	932.130315761404	475.966318806075	325.918961548108	900.646606024385	409.829665167038	317.571437374464	800.567198159529	304.135930949207	267.584103734313	839.629716199420	189.435974987387	340.553002545660	1149.935033063447	437.713559892980	552.005000323709	1093.446970480015	326.950134083870	618.237223397372	1157.043695641231	237.666250469613	565.360366815231	1057.472380561499	52.804889428542	541.887461824806	1222.894712487419	124.686622066213	577.670565675081	1144.153665604077	49.505182300115	612.994539173769	1347.546440079697	84.887159733506	598.790486748813	700.996478252150	38.584034224805	383.885597837637	773.061401422169	35.186665535948	301.996153962230	857.055798756196	95.469734001580	327.478874390666	984.773689101173	42.217064119949	295.784454476447	967.355942907701	1093.024766833962	123.593880086946	1217.279876142770	1073.785077286257	157.056940263727	858.087758626226	1126.952524788626	727.793577652124	824.398544769309	866.500124039279	734.488351881206	
72	39.946928571429	785.431040754408	1006.117006447643	444.289388218129	995.326091553573	1427.534890202622	270.632644689670	1091.972652525628	1344.960337301997	428.260525274358	1015.405042750110	1425.269906451539	602.094127190257	999.758234068107	1483.639990258030	421.707761568030	1011.300113969815	932.630843021888	560.125248696678	984.964039573053	953.108587104366	286.957531738614	1085.184336510608	765.055216562742	530.318797829224	1042.425614673109	643.308699884285	606.409073746937	1130.397438179290	607.895952149782	524.828850555657	1164.849627786980	523.475672194851	541.019358493180	1001.186673315010	728.655172043393	313.845489308094	884.289334607361	634.690885640479	253.221108820509	944.202097931315	540.753688101520	316.734776771997	929.895022449875	474.143547339718	327.080837020729	897.440915879637	408.329389610143	318.660344117525	796.048126108380	303.934744468815	268.327023279532	833.523356010187	188.619017103578	341.050605078046	1145.658356127036	433.364047606232	552.847110324025	1090.112217405874	321.386571458661	617.642730359436	1155.711729725709	233.415466824437	564.731507173763	1058.901304228722	48.231767507870	539.676784001437	1223.714638561833	120.858066220067	576.074818928638	1145.281793949107	45.571065745928	611.065297723647	1348.574565941572	81.624021343632	597.298699923497	693.726634212673	38.327238141006	383.920945852858	765.834442202993	35.020700909164	302.070325449097	849.864322717081	95.343868064795	327.629964688123	977.615754137205	41.990785669570	295.786553676204	969.833179984604	1091.874496958590	124.630569891334	1219.828249452066	1079.882478137829	159.354295547609	857.309006823135	1126.986441736518	729.795262939955	823.328479699066	866.472527298577	735.943066937860	
73	39.958857142857	787.356589074307	1004.316557253618	446.218413102750	995.614839154187	1426.063308277462	272.465713661890	1092.650130402924	1343.980559243340	430.096025250080	1015.800210809638	1424.081061201018	603.861159374235	999.944534289347	1482.281557754360	423.438769589726	1013.236045277091	930.779908613031	562.209104146114	986.553284981604	951.183118468169	289.078351726012	1085.290084982415	760.679538595885	533.404335176949	1039.179662927159	639.271047451780	607.759026107276	1127.307097969039	603.264177846066	526.683764241116	1159.497232570524	519.130384525520	541.813044921547	1001.924913166547	726.735150684671	315.733356254159	884.292901463698	633.541135362190	254.792549099497	943.381500368190	539.092691128884	318.331601972295	928.669694060079	472.032430144734	328.455782163126	895.005921937816	406.565977478923	319.965580787317	792.078678564485	303.743659442838	269.240719260023	827.677139445507	187.725228779358	341.620535978824	1141.439873072192	429.069647689097	553.375759026187	1086.075995871407	316.323718522188	616.720018584601	1152.925128555771	229.254156900420	563.780567349412	1057.352339398008	44.893968007847	537.259903103262	1222.043906164505	116.702830622952	574.028138490293	1143.326354960210	42.344160317406	609.010665221036	1346.770013412346	77.079667493428	595.647417241527	686.439532355490	38.176342630457	383.935268167384	758.621013285286	34.883676573721	302.146237092495	842.746192921326	95.224830371334	327.773817099299	970.506017091035	41.719853098653	295.767755211520	972.053115868378	1090.541687163043	125.918304325950	1221.980012726284	1085.048166367426	161.603436958410	857.298900964439	1126.468235082859	731.826678725728	823.522523737968	865.813271279266	737.347198850446	
74	39.970785714286	789.265511374652	1002.558595590975	448.294177726865	995.855717883915	1424.592846770403	274.410301845982	1093.381097532720	1343.059300813502	432.032344107640	1016.250753886804	1422.921435299265	605.752831177061	1000.169222976767	1480.975217791217	425.286487072777	1015.205200911857	929.024548285171	564.461699765263	988.174834077307	949.354637670648	291.368031219888	1085.850963073466	756.783786372743	536.576741049099	1036.483985598426	635.651188823963	608.856183892019	1124.937435009881	599.273683704174	528.407352475881	1154.802749181625	515.098468316231	542.328003215654	1003.190747253178	724.901503428404	317.789978808979	885.050094304729	632.201597023576	256.638091447702	943.607103827267	537.333544895241	320.167296150502	928.601179408817	469.644565253442	330.008818818696	893.448287467916	404.570036750959	321.466816173019	788.746680750032	303.637645683590	270.325737218570	822.165485476341	186.825820385957	342.240576518557	1137.475900934553	425.020411341329	553.588501324950	1081.752266561318	311.900426323938	615.665759323430	1149.069142524387	225.318405649650	562.602095121312	1053.337077667704	42.640925277937	534.903501263015	1218.335907195710	112.461076301437	571.711301539403	1138.877402305939	39.841517986081	607.046515703066	1342.702316335208	71.734138799452	593.942537077348	679.159558359995	38.285478258851	383.916980278101	751.441094714555	34.853990857498	302.216938435233	835.761385226384	95.137500802670	327.886745029730	963.456596702189	41.399602717398	295.724290218015	973.965161053754	1089.069958273740	127.491173568238	1223.749282200221	1089.209186559481	163.792187540004	858.094819895429	1125.408762372534	733.873620520581	824.978471229218	864.553072526760	738.719292829363	
75	39.982714285714	791.095275996247	1000.942545251579	450.485376665183	996.111063458709	1423.199828209504	276.453146043843	1094.178366048900	1342.230288654189	434.063209709504	1016.791839856670	1421.853381502003	607.759682873516	1000.494078170616	1479.794055990599	427.242597280711	1017.146027486957	927.478553577342	566.866981511077	989.763856991711	947.736979348244	293.811390538227	1086.837460365502	753.504072486875	539.753020641463	1034.411167836828	632.601379476890	609.743607617583	1123.287113711773	596.028404749478	529.975342657845	1150.879750706877	511.550848640630	542.585533983251	1004.964386996847	723.245465985654	319.998341377395	886.600222129118	630.704086782618	258.749318510836	944.999573755164	535.530241498185	322.209058291339	929.826642966340	467.018611912927	331.680009770402	892.873518402888	402.398671219392	323.120765132696	786.145366895421	303.716586750214	271.566755805888	817.076813059581	186.020268433114	342.875677703796	1133.928227498932	421.395579050430	553.532649061297	1077.527111384254	308.238132011838	614.691389530915	1144.538248512712	221.754738494657	561.313969850314	1047.460709075928	41.292922364070	532.827956837718	1213.089617254660	108.406782207283	569.338567287792	1132.600763381413	38.041300568400	605.346880808992	1336.976492343556	66.138946931033	592.303196052653	671.930981026833	38.858898005690	383.853823889089	744.324790334577	35.043377858367	302.273167750244	828.986754682709	95.116947308603	327.939475020752	956.476546812298	41.026672766167	295.655383208254	975.517174771688	1087.519887314987	129.383201582894	1225.145350210798	1092.301428216249	165.914697722984	859.726118989893	1123.849279039585	735.920598406330	827.699103760209	862.752289266121	740.073800287395	
